<svg xmlns="http://www.w3.org/2000/svg" viewBox="0 0 24 24" width="32" height="32">
  <rect width="24" height="24" rx="4" fill="#1e1e2e"/>
  <path fill="#cba6f7" d="M12 2.5L4.5 5.75v5.5c0 4.625 3.2 8.95 7.5 10 4.3-1.05 7.5-5.375 7.5-10v-5.5L12 2.5zm0 5.25c1.15 0 2.3 1.3 2.3 2.45v1.05c.575 0 1.05.475 1.05.95v2.7c0 .85-.825 1.275-1.275 1.275h-4.15c-.45 0-1.275-.425-1.275-1.275v-2.7c0-.475.475-.95 1.05-.95v-1.05c0-1.15 1.15-2.45 2.3-2.45zm0 1c-.65 0-1.25.425-1.25 1.45v1.05h2.5v-1.05c0-1.025-.6-1.45-1.25-1.45z"/>
</svg>
